#!OML:ASF \\Waltz\H\Terrain\Patient Classification 1\Animal1\Tuesday\Animal1.ASF
:FULLY-SPECIFIED
:DEGREES
1266
root 14.6056 13.1356 0.942229 -332.022 37.6125 5.52362
lowerback 42.632 -0.851396 0.89074
upperback 10.854 -0.296751 -2.27891
thorax -8.08252 0.188724 -2.81011
lowerneck -16.5807 -3.60728 -3.3465
upperneck -16.7764 -2.57329 15.023
head -2.01347 -1.15485 5.15253
rclavicle 5.64548e-014 -6.75868e-015
rhumerus 31.8923 19.8916 -35.9714
rradius 100.879
rwrist -40.196
rhand -10.2205 -1.08021
rfingers 7.12502
rthumb 15.7713 -30.4577
lclavicle 5.64548e-014 -6.75868e-015
lhumerus 23.1594 -15.9 69.5025
lradius 105.481
lwrist -56.1806
lhand 55.9689 39.1343
lfingers 7.12502
lthumb 73.2649 19.9729
rfemur -73.609 5.64883 7.66874
rtibia 107.462
rfoot -2.63163 -13.6007
rtoes -8.9773
lfemur -89.4224 -10.6943 -9.76946
ltibia 73.7278
lfoot -17.4462 -18.1028
ltoes -11.7495
1267
root 14.6018 13.1035 0.955959 -332.275 38.2606 5.24406
lowerback 42.9453 -0.963668 1.02529
upperback 11.0105 -0.310126 -1.94123
thorax -7.99101 0.184035 -2.51191
lowerneck -16.8523 -3.66958 -3.13032
upperneck -17.0229 -2.65354 15.0484
head -2.04585 -1.20513 5.1246
rclavicle 3.10104e-014 -1.23246e-014
rhumerus 32.3728 19.038 -35.6948
rradius 103.195
rwrist -41.9671
rhand -11.4467 -0.685938
rfingers 7.12502
rthumb 14.5902 -30.1528
lclavicle 3.10104e-014 -1.23246e-014
lhumerus 23.0424 -17.1817 68.2112
lradius 106.073
lwrist -56.3056
lhand 60.5712 32.8303
lfingers 7.12502
lthumb 74.7154 -1.62236
rfemur -73.4293 5.61142 8.20539
rtibia 107.804
rfoot -3.13712 -13.9074
rtoes -6.4438
lfemur -89.7656 -10.686 -9.61225
ltibia 74.1878
lfoot -17.5785 -18.5643
ltoes -12.0968
1268
root 14.5975 13.0748 0.96873 -332.566 38.8617 5.03704
lowerback 43.3967 -1.0986 1.19716
upperback 11.0603 -0.344543 -1.66495
thorax -8.05932 0.168223 -2.29095
lowerneck -16.3272 -3.73851 -3.0713
upperneck -17.7732 -2.64953 15.2022
head -2.34533 -1.25925 5.18378
rclavicle 3.22031e-014 -1.12313e-013
rhumerus 32.5704 17.6112 -36.3329
rradius 104.652
rwrist -44.3049
rhand -13.3651 0.440596
rfingers 7.12502
rthumb 12.7412 -29.1507
lclavicle 3.22031e-014 -1.12313e-013
lhumerus 23.0815 -20.2461 66.1114
lradius 107.136
lwrist -51.3847
lhand 60.1688 32.2105
lfingers 7.12502
lthumb 74.6367 -0.801921
rfemur -73.3083 5.59157 8.55946
rtibia 108.213
rfoot -4.19527 -14.1195
rtoes -0.720018
lfemur -89.9735 -10.8036 -9.44461
ltibia 74.6113
lfoot -17.7061 -18.8687
ltoes -11.8285
1269
root 14.5946 13.0359 0.97465 -332.76 39.3625 4.87263
lowerback 43.7723 -1.27602 1.46407
upperback 11.1346 -0.405145 -1.52446
thorax -8.08109 0.145285 -2.25235
lowerneck -15.904 -3.89052 -3.04129
upperneck -18.4818 -2.75311 15.4269
head -2.60522 -1.36291 5.2669
rclavicle -3.37934e-014 -3.97569e-016
rhumerus 32.7889 15.4776 -37.8464
rradius 105.07
rwrist -47.1396
rhand -16.6495 2.16347
rfingers 7.12502
rthumb 9.57351 -27.599
lclavicle -3.37934e-014 -3.97569e-016
lhumerus 23.7679 -24.3377 63.2475
lradius 108.535
lwrist -42.4051
lhand 56.4441 37.1522
lfingers 7.12502
lthumb 73.4666 16.5507
rfemur -73.4117 5.45629 8.79751
rtibia 108.701
rfoot -4.71412 -14.0183
rtoes 2.91764
lfemur -90.2885 -11.0172 -9.22915
ltibia 75.0196
lfoot -17.8411 -18.9942
ltoes -12.0266
1270
root 14.5934 12.9938 0.978279 -332.983 39.7965 4.58694
lowerback 43.9444 -1.47973 1.89028
upperback 11.3849 -0.443499 -1.53286
thorax -7.85034 0.144284 -2.4626
lowerneck -16.1431 -4.07856 -2.89456
upperneck -18.8002 -2.95099 15.7648
head -2.63962 -1.4802 5.34936
rclavicle -1.59028e-015 9.18385e-014
rhumerus 33.3494 12.382 -40.041
rradius 104.458
rwrist -49.6312
rhand -19.6056 2.56197
rfingers 7.12502
rthumb 6.72055 -27.3114
lclavicle -1.59028e-015 9.18385e-014
lhumerus 25.275 -28.4963 59.9765
lradius 110.177
lwrist -31.4852
lhand 52.3442 44.3884
lfingers 7.12502
lthumb 71.405 35.025
rfemur -73.3937 5.3169 9.35248
rtibia 109.062
rfoot -3.28448 -14.1335
rtoes -3.12971
lfemur -90.6877 -11.1573 -8.91704
ltibia 75.4574
lfoot -17.9219 -19.0217
ltoes -12.3998
1271
root 14.5898 12.9565 0.987063 -333.426 40.3152 4.13815
lowerback 44.1826 -1.73353 2.48508
upperback 11.6131 -0.470523 -1.55779
thorax -7.66162 0.151426 -2.78127
lowerneck -16.4598 -4.25052 -2.9219
upperneck -18.6981 -3.1424 16.2635
head -2.52231 -1.56726 5.50115
rclavicle 1.51076e-014 -1.74931e-014
rhumerus 34.0099 9.23279 -42.5372
rradius 102.581
rwrist -50.1111
rhand -22.1986 4.50603
rfingers 7.12502
rthumb 4.21696 -25.432
lclavicle 1.51076e-014 -1.74931e-014
lhumerus 26.9845 -32.2565 57.0017
lradius 112.391
lwrist -19.8812
lhand 51.8562 55.4343
lfingers 7.12502
lthumb 71.1166 47.2315
rfemur -73.1425 5.33158 10.0558
rtibia 109.361
rfoot -3.00311 -14.3698
rtoes -3.51901
lfemur -91.016 -11.3557 -8.39429
ltibia 75.9389
lfoot -17.8786 -19.0265
ltoes -12.4506
1272
root 14.5869 12.9195 0.996872 -333.577 40.8159 4.06493
lowerback 44.3709 -1.99905 2.90119
upperback 11.694 -0.590215 -1.5694
thorax -7.62906 0.109229 -2.95591
lowerneck -16.6573 -4.49877 -3.46419
upperneck -18.1286 -3.41597 17.0333
head -2.2422 -1.65696 5.81197
rclavicle 2.26615e-014 9.66093e-014
rhumerus 34.6002 6.83336 -44.9086
rradius 99.5493
rwrist -46.6317
rhand -24.6285 8.41304
rfingers 7.12502
rthumb 1.87037 -21.5585
lclavicle 2.26615e-014 9.66093e-014
lhumerus 28.2273 -35.1455 54.8637
lradius 115.482
lwrist -8.68852
lhand 44.7581 59.858
lfingers 7.12502
lthumb 66.2019 64.8976
rfemur -72.8845 5.1534 10.308
rtibia 109.733
rfoot -4.56702 -14.5581
rtoes 3.43087
lfemur -91.3926 -11.7106 -8.12127
ltibia 76.4107
lfoot -17.8279 -19.0034
ltoes -12.4626
1273
root 14.5841 12.8772 1.00637 -333.516 41.0399 4.26475
lowerback 44.4947 -2.10375 2.96509
upperback 11.7593 -0.681609 -1.66567
thorax -7.59694 0.0785437 -3.05329
lowerneck -16.7861 -4.6924 -3.96757
upperneck -17.5482 -3.6331 17.7215
head -1.97636 -1.7198 6.09225
rclavicle -4.77083e-014 1.64991e-014
rhumerus 35.2332 5.02245 -46.9532
rradius 95.5779
rwrist -38.8886
rhand -25.9914 11.1369
rfingers 7.12502
rthumb 0.554044 -18.8422
lclavicle -4.77083e-014 1.64991e-014
lhumerus 29.0196 -36.3066 53.7906
lradius 118.159
lwrist 1.25168
lhand 40.7638 65.8104
lfingers 7.12502
lthumb 63.0252 75.9664
rfemur -72.7529 5.00225 10.3312
rtibia 110.129
rfoot -5.06777 -15.0773
rtoes 6.58986
lfemur -91.672 -11.7102 -8.39632
ltibia 76.8715
lfoot -18.0029 -19.1913
ltoes -12.8963
1274
root 14.5783 12.8345 1.01422 -333.245 41.0016 4.58528
lowerback 44.4555 -2.04107 2.78711
upperback 11.8311 -0.70909 -1.9462
thorax -7.51511 0.0797075 -3.25234
lowerneck -16.8381 -4.71046 -3.86668
upperneck -17.2054 -3.69132 18.0332
head -1.84643 -1.74247 6.16221
rclavicle -7.39479e-014 3.99557e-014
rhumerus 35.6948 3.60291 -48.6192
rradius 90.9116
rwrist -28.3393
rhand -26.2746 11.6903
rfingers 7.12502
rthumb 0.280504 -18.2893
lclavicle -7.39479e-014 3.99557e-014
lhumerus 29.6661 -36.4968 52.9984
lradius 120.267
lwrist 7.38102
lhand 33.5123 68.8155
lfingers 7.12502
lthumb 56.8339 85.539
rfemur -73.1038 4.98628 10.1868
rtibia 110.601
rfoot -5.26512 -15.614
rtoes 10.8972
lfemur -91.9352 -11.2276 -9.22034
ltibia 77.269
lfoot -18.2394 -19.8007
ltoes -12.5005
1275
root 14.5716 12.8016 1.02213 -332.58 40.9468 5.09567
lowerback 44.089 -1.94952 2.47252
upperback 11.915 -0.768118 -2.20581
thorax -7.33321 0.0630674 -3.34617
lowerneck -17.0036 -4.71694 -3.75006
upperneck -16.9753 -3.73468 18.1671
head -1.74496 -1.75297 6.17524
rclavicle -4.37326e-014 3.61788e-014
rhumerus 35.9343 2.43491 -49.3343
rradius 86.2898
rwrist -17.0287
rhand -24.9966 11.2334
rfingers 7.12502
rthumb 1.51489 -18.741
lclavicle -4.37326e-014 3.61788e-014
lhumerus 30.0193 -35.5542 52.9162
lradius 121.145
lwrist 8.10189
lhand 32.3971 68.2983
lfingers 7.12502
lthumb 55.8482 85.8052
rfemur -73.6526 4.8237 9.84764
rtibia 111.032
rfoot -5.57036 -15.9341
rtoes 12.2594
lfemur -92.3718 -11.1023 -9.84548
ltibia 77.493
lfoot -18.2933 -20.0771
ltoes -11.6181
1276
root 14.5624 12.7785 1.03401 -332.1 40.8916 5.51783
lowerback 43.9578 -1.81716 2.10154
upperback 11.9385 -0.781839 -2.36272
thorax -7.27436 0.0606852 -3.31911
lowerneck -16.9794 -4.80969 -3.77186
upperneck -16.8683 -3.86991 18.2774
head -1.69523 -1.81857 6.20413
rclavicle -3.18055e-015 -4.09496e-014
rhumerus 35.6068 1.98799 -48.8422
rradius 83.4228
rwrist -9.07359
rhand -21.1764 9.31124
rfingers 7.12502
rthumb 5.20399 -20.6049
lclavicle -3.18055e-015 -4.09496e-014
lhumerus 30.0232 -33.6999 53.6651
lradius 120.944
lwrist 4.04321
lhand 34.7748 66.6013
lfingers 7.12502
lthumb 57.9408 82.3757
rfemur -73.8741 4.80542 9.55684
rtibia 111.313
rfoot -5.51934 -16.3489
rtoes 9.79322
lfemur -92.6889 -11.4847 -9.70877
ltibia 77.5805
lfoot -18.2514 -19.6246
ltoes -12.0593
1277
root 14.5518 12.7534 1.0493 -331.732 40.7675 5.9009
lowerback 43.9121 -1.62052 1.6652
upperback 11.9681 -0.74311 -2.52692
thorax -7.22714 0.0824865 -3.28767
lowerneck -16.687 -4.9433 -3.88778
upperneck -17.0885 -3.97523 18.6378
head -1.77046 -1.89492 6.34326
rclavicle -7.27552e-014 4.96962e-014
rhumerus 34.7016 3.0299 -47.0375
rradius 82.9088
rwrist -9.70241
rhand -16.4426 7.19241
rfingers 7.12502
rthumb 9.77315 -22.5608
lclavicle -7.27552e-014 4.96962e-014
lhumerus 29.8402 -31.0895 55.02
lradius 119.849
lwrist -2.91099
lhand 38.3526 63.7344
lfingers 7.12502
lthumb 61.016 76.4019
rfemur -74.1192 4.9073 9.23106
rtibia 111.616
rfoot -5.59119 -16.6054
rtoes 9.76553
lfemur -92.9676 -11.503 -9.86177
ltibia 77.6613
lfoot -18.2407 -19.5282
ltoes -12.9272
